<svg xmlns="http://www.w3.org/2000/svg" xmlns:xlink="http://www.w3.org/1999/xlink" contentStyleType="text/css" data-diagram-type="DESCRIPTION" height="2548px" preserveAspectRatio="none" style="width:938px;height:2548px;background:#FFFFFF;" version="1.1" viewBox="0 0 938 2548" width="938px" zoomAndPan="magnify"><?plantuml 1.2026.6?><defs/><g><g class="title" data-source-line="1"><text fill="#000000" font-family="sans-serif" font-size="14" font-weight="700" lengthAdjust="spacing" textLength="378.4033" x="276.6755" y="40.9951">E6-01 &#8212; Propose and Approve Debt Transaction</text><text fill="#000000" font-family="sans-serif" font-size="14" font-weight="700" lengthAdjust="spacing" textLength="170.9189" x="380.4177" y="57.292">Business Control Map</text></g><rect fill="#FFFFCC" height="16.6406" rx="2.5" ry="2.5" style="stroke:#FFDD88;stroke-width:3;" width="922.7544" x="3" y="92.5938"/><text fill="#000000" font-family="monospace" font-size="10" lengthAdjust="spacing" textLength="295.0049" x="10" y="103.2344">Please&#160;use&#160;CSS&#160;style&#160;instead&#160;of&#160;skinparam&#160;padding</text><!--entity Draft--><g class="entity" data-qualified-name="Draft" data-source-line="17" id="ent0001"><rect fill="#F1F1F1" height="72.2969" rx="2.5" ry="2.5" style="stroke:#181818;stroke-width:0.5;" width="178.1309" x="655.5" y="1611.7344"/><text fill="#000000" font-family="sans-serif" font-size="14" lengthAdjust="spacing" textLength="122.1309" x="683.5" y="1652.7295">Draft Transaction</text></g><!--entity Control1--><g class="entity" data-qualified-name="Control1" data-source-line="19" id="ent0002"><rect fill="#F1F1F1" height="202.6719" rx="2.5" ry="2.5" style="stroke:#181818;stroke-width:0.5;" width="277.0605" x="337" y="118.2344"/><text fill="#000000" font-family="sans-serif" font-size="14" lengthAdjust="spacing" textLength="81.7236" x="434.6685" y="159.2295">CONTROL 1</text><text fill="#000000" font-family="sans-serif" font-size="14" lengthAdjust="spacing" textLength="4.4502" x="473.3052" y="175.5264">&#160;</text><text fill="#000000" font-family="sans-serif" font-size="14" lengthAdjust="spacing" textLength="221.0605" x="365" y="191.8232">DATA QUALITY AND ELIGIBILITY</text><text fill="#000000" font-family="sans-serif" font-size="14" lengthAdjust="spacing" textLength="4.4502" x="473.3052" y="208.1201">&#160;</text><text fill="#000000" font-family="sans-serif" font-size="14" lengthAdjust="spacing" textLength="105.1982" x="422.9312" y="224.417">Required fields</text><text fill="#000000" font-family="sans-serif" font-size="14" lengthAdjust="spacing" textLength="92.5859" x="429.2373" y="240.7139">Product rules</text><text fill="#000000" font-family="sans-serif" font-size="14" lengthAdjust="spacing" textLength="106.8389" x="422.1108" y="257.0107">Date validation</text><text fill="#000000" font-family="sans-serif" font-size="14" lengthAdjust="spacing" textLength="107.4199" x="421.8203" y="273.3076">Reference data</text><text fill="#000000" font-family="sans-serif" font-size="14" lengthAdjust="spacing" textLength="124.6875" x="413.1865" y="289.6045">Transaction limits</text></g><!--entity Validated--><g class="entity" data-qualified-name="Validated" data-source-line="21" id="ent0003"><rect fill="#F1F1F1" height="72.2969" rx="2.5" ry="2.5" style="stroke:#181818;stroke-width:0.5;" width="208.9883" x="255" y="416.2344"/><text fill="#000000" font-family="sans-serif" font-size="14" lengthAdjust="spacing" textLength="152.9883" x="283" y="457.2295">Validated Transaction</text></g><!--entity Control2--><g class="entity" data-qualified-name="Control2" data-source-line="23" id="ent0004"><rect fill="#F1F1F1" height="202.6719" rx="2.5" ry="2.5" style="stroke:#181818;stroke-width:0.5;" width="242.4639" x="70.5" y="583.2344"/><text fill="#000000" font-family="sans-serif" font-size="14" lengthAdjust="spacing" textLength="81.7236" x="150.8701" y="624.2295">CONTROL 2</text><text fill="#000000" font-family="sans-serif" font-size="14" lengthAdjust="spacing" textLength="4.4502" x="189.5068" y="640.5264">&#160;</text><text fill="#000000" font-family="sans-serif" font-size="14" lengthAdjust="spacing" textLength="166.5986" x="108.4326" y="656.8232">SUBMISSION INTEGRITY</text><text fill="#000000" font-family="sans-serif" font-size="14" lengthAdjust="spacing" textLength="4.4502" x="189.5068" y="673.1201">&#160;</text><text fill="#000000" font-family="sans-serif" font-size="14" lengthAdjust="spacing" textLength="146.0156" x="118.7241" y="689.417">Valid status required</text><text fill="#000000" font-family="sans-serif" font-size="14" lengthAdjust="spacing" textLength="186.4639" x="98.5" y="705.7139">Submitted version created</text><text fill="#000000" font-family="sans-serif" font-size="14" lengthAdjust="spacing" textLength="168.8203" x="107.3218" y="722.0107">Terms locked for review</text><text fill="#000000" font-family="sans-serif" font-size="14" lengthAdjust="spacing" textLength="136.7461" x="123.3589" y="738.3076">Submitter recorded</text><text fill="#000000" font-family="sans-serif" font-size="14" lengthAdjust="spacing" textLength="145.8037" x="118.8301" y="754.6045">Timestamp recorded</text></g><!--entity Submitted--><g class="entity" data-qualified-name="Submitted" data-source-line="25" id="ent0005"><rect fill="#F1F1F1" height="72.2969" rx="2.5" ry="2.5" style="stroke:#181818;stroke-width:0.5;" width="215.25" x="53" y="881.2344"/><text fill="#000000" font-family="sans-serif" font-size="14" lengthAdjust="spacing" textLength="159.25" x="81" y="922.2295">Submitted Transaction</text></g><!--entity Control3--><g class="entity" data-qualified-name="Control3" data-source-line="27" id="ent0006"><rect fill="#F1F1F1" height="202.6719" rx="2.5" ry="2.5" style="stroke:#181818;stroke-width:0.5;" width="238.3281" x="25.5" y="1048.2344"/><text fill="#000000" font-family="sans-serif" font-size="14" lengthAdjust="spacing" textLength="81.7236" x="103.8022" y="1089.2295">CONTROL 3</text><text fill="#000000" font-family="sans-serif" font-size="14" lengthAdjust="spacing" textLength="4.4502" x="142.439" y="1105.5264">&#160;</text><text fill="#000000" font-family="sans-serif" font-size="14" lengthAdjust="spacing" textLength="177.7754" x="55.7764" y="1121.8232">APPROVAL GOVERNANCE</text><text fill="#000000" font-family="sans-serif" font-size="14" lengthAdjust="spacing" textLength="4.4502" x="142.439" y="1138.1201">&#160;</text><text fill="#000000" font-family="sans-serif" font-size="14" lengthAdjust="spacing" textLength="143.6504" x="72.8389" y="1154.417">Authorized approver</text><text fill="#000000" font-family="sans-serif" font-size="14" lengthAdjust="spacing" textLength="173.2158" x="58.0562" y="1170.7139">Approval authority limits</text><text fill="#000000" font-family="sans-serif" font-size="14" lengthAdjust="spacing" textLength="150.4795" x="69.4243" y="1187.0107">Segregation of duties</text><text fill="#000000" font-family="sans-serif" font-size="14" lengthAdjust="spacing" textLength="182.3281" x="53.5" y="1203.3076">Complete review package</text><text fill="#000000" font-family="sans-serif" font-size="14" lengthAdjust="spacing" textLength="163.1875" x="63.0703" y="1219.6045">Return reason required</text></g><!--entity Decision--><g class="entity" data-qualified-name="Decision" data-source-line="29" id="ent0007"><rect fill="#F1F1F1" height="104.8906" rx="2.5" ry="2.5" style="stroke:#181818;stroke-width:0.5;" width="188.583" x="51" y="1346.2344"/><text fill="#000000" font-family="sans-serif" font-size="14" lengthAdjust="spacing" textLength="126.4785" x="82.0522" y="1387.2295">Approval Decision</text><text fill="#000000" font-family="sans-serif" font-size="14" lengthAdjust="spacing" textLength="4.4502" x="143.0664" y="1403.5264">&#160;</text><text fill="#000000" font-family="sans-serif" font-size="14" lengthAdjust="spacing" textLength="132.583" x="79" y="1419.8232">Approve or return?</text></g><!--entity Control4--><g class="entity" data-qualified-name="Control4" data-source-line="31" id="ent0008"><rect fill="#F1F1F1" height="202.6719" rx="2.5" ry="2.5" style="stroke:#181818;stroke-width:0.5;" width="277.1494" x="7" y="1546.2344"/><text fill="#000000" font-family="sans-serif" font-size="14" lengthAdjust="spacing" textLength="81.7236" x="104.7129" y="1587.2295">CONTROL 4</text><text fill="#000000" font-family="sans-serif" font-size="14" lengthAdjust="spacing" textLength="4.4502" x="143.3496" y="1603.5264">&#160;</text><text fill="#000000" font-family="sans-serif" font-size="14" lengthAdjust="spacing" textLength="221.1494" x="35" y="1619.8232">RECORD AND AUDIT INTEGRITY</text><text fill="#000000" font-family="sans-serif" font-size="14" lengthAdjust="spacing" textLength="4.4502" x="143.3496" y="1636.1201">&#160;</text><text fill="#000000" font-family="sans-serif" font-size="14" lengthAdjust="spacing" textLength="122.7529" x="84.1982" y="1652.417">Decision retained</text><text fill="#000000" font-family="sans-serif" font-size="14" lengthAdjust="spacing" textLength="168.3213" x="61.4141" y="1668.7139">Version history retained</text><text fill="#000000" font-family="sans-serif" font-size="14" lengthAdjust="spacing" textLength="107.2764" x="91.9365" y="1685.0107">Status updated</text><text fill="#000000" font-family="sans-serif" font-size="14" lengthAdjust="spacing" textLength="140.4512" x="75.3491" y="1701.3076">Participants notified</text><text fill="#000000" font-family="sans-serif" font-size="14" lengthAdjust="spacing" textLength="185.1445" x="53.0024" y="1717.6045">Approved terms protected</text></g><!--entity Approved--><g class="entity" data-qualified-name="Approved" data-source-line="33" id="ent0009"><rect fill="#F1F1F1" height="72.2969" rx="2.5" ry="2.5" style="stroke:#181818;stroke-width:0.5;" width="210.0547" x="40.5" y="1844.2344"/><text fill="#000000" font-family="sans-serif" font-size="14" lengthAdjust="spacing" textLength="154.0547" x="68.5" y="1885.2295">Approved Transaction</text></g><!--entity Ready--><g class="entity" data-qualified-name="Ready" data-source-line="35" id="ent0010"><rect fill="#F1F1F1" height="88.5938" rx="2.5" ry="2.5" style="stroke:#181818;stroke-width:0.5;" width="199.3701" x="46" y="2011.2344"/><text fill="#000000" font-family="sans-serif" font-size="14" lengthAdjust="spacing" textLength="67.792" x="111.7891" y="2052.2295">Ready for</text><text fill="#000000" font-family="sans-serif" font-size="14" lengthAdjust="spacing" textLength="143.3701" x="74" y="2068.5264">Security Preparation</text></g><g class="entity" data-qualified-name="GMN21" data-source-line="54" id="ent0022"><path d="M699.5,174.2344 L699.5,216.2344 L614.1,220.2344 L699.5,224.2344 L699.5,265.6328 A0,0 0 0 0 699.5,265.6328 L923.7544,265.6328 A0,0 0 0 0 923.7544,265.6328 L923.7544,184.2344 L913.7544,174.2344 L699.5,174.2344 A0,0 0 0 0 699.5,174.2344" fill="#FEFFDD" style="stroke:#181818;stroke-width:0.5;"/><path d="M913.7544,174.2344 L913.7544,184.2344 L923.7544,184.2344 L913.7544,174.2344" fill="#FEFFDD" style="stroke:#181818;stroke-width:0.5;"/><text fill="#000000" font-family="sans-serif" font-size="13" lengthAdjust="spacing" textLength="137.8203" x="738.217" y="209.3013">Prevents incomplete,</text><text fill="#000000" font-family="sans-serif" font-size="13" lengthAdjust="spacing" textLength="145.9072" x="734.1736" y="224.4341">ineligible, or internally</text><text fill="#000000" font-family="sans-serif" font-size="13" lengthAdjust="spacing" textLength="167.2544" x="723.5" y="239.5669">inconsistent transactions.</text></g><g class="entity" data-qualified-name="GMN24" data-source-line="60" id="ent0025"><path d="M397.5,646.7344 L397.5,681.2344 L312.79,685.2344 L397.5,689.2344 L397.5,723 A0,0 0 0 0 397.5,723 L601.1055,723 A0,0 0 0 0 601.1055,723 L601.1055,656.7344 L591.1055,646.7344 L397.5,646.7344 A0,0 0 0 0 397.5,646.7344" fill="#FEFFDD" style="stroke:#181818;stroke-width:0.5;"/><path d="M591.1055,646.7344 L591.1055,656.7344 L601.1055,656.7344 L591.1055,646.7344" fill="#FEFFDD" style="stroke:#181818;stroke-width:0.5;"/><text fill="#000000" font-family="sans-serif" font-size="13" lengthAdjust="spacing" textLength="131.6948" x="428.9553" y="681.8013">Creates a controlled</text><text fill="#000000" font-family="sans-serif" font-size="13" lengthAdjust="spacing" textLength="146.6055" x="421.5" y="696.9341">snapshot for approval.</text></g><g class="entity" data-qualified-name="GMN27" data-source-line="65" id="ent0028"><path d="M349,1104.2344 L349,1146.2344 L263.67,1150.2344 L349,1154.2344 L349,1195.6328 A0,0 0 0 0 349,1195.6328 L616.3486,1195.6328 A0,0 0 0 0 616.3486,1195.6328 L616.3486,1114.2344 L606.3486,1104.2344 L349,1104.2344 A0,0 0 0 0 349,1104.2344" fill="#FEFFDD" style="stroke:#181818;stroke-width:0.5;"/><path d="M606.3486,1104.2344 L606.3486,1114.2344 L616.3486,1114.2344 L606.3486,1104.2344" fill="#FEFFDD" style="stroke:#181818;stroke-width:0.5;"/><text fill="#000000" font-family="sans-serif" font-size="13" lengthAdjust="spacing" textLength="147.1196" x="404.6145" y="1139.3013">Prevents unauthorized</text><text fill="#000000" font-family="sans-serif" font-size="13" lengthAdjust="spacing" textLength="143.9204" x="406.2141" y="1154.4341">approval and conflicts</text><text fill="#000000" font-family="sans-serif" font-size="13" lengthAdjust="spacing" textLength="210.3486" x="373" y="1169.5669">between proposal and approval.</text></g><g class="entity" data-qualified-name="GMN30" data-source-line="71" id="ent0031"><path d="M369.5,1602.2344 L369.5,1644.2344 L284.32,1648.2344 L369.5,1652.2344 L369.5,1693.6328 A0,0 0 0 0 369.5,1693.6328 L569.9951,1693.6328 A0,0 0 0 0 569.9951,1693.6328 L569.9951,1612.2344 L559.9951,1602.2344 L369.5,1602.2344 A0,0 0 0 0 369.5,1602.2344" fill="#FEFFDD" style="stroke:#181818;stroke-width:0.5;"/><path d="M559.9951,1602.2344 L559.9951,1612.2344 L569.9951,1612.2344 L559.9951,1602.2344" fill="#FEFFDD" style="stroke:#181818;stroke-width:0.5;"/><text fill="#000000" font-family="sans-serif" font-size="13" lengthAdjust="spacing" textLength="143.4951" x="393.5" y="1637.3013">Preserves evidence of</text><text fill="#000000" font-family="sans-serif" font-size="13" lengthAdjust="spacing" textLength="131.4155" x="399.5398" y="1652.4341">what was approved,</text><text fill="#000000" font-family="sans-serif" font-size="13" lengthAdjust="spacing" textLength="135.6621" x="397.4165" y="1667.5669">by whom, and when.</text></g><!--link Draft to Control1--><g class="link" data-entity-1="ent0001" data-entity-2="ent0002" data-link-type="dependency" data-source-line="37" id="lnk11"><path d="M684.83,1611.5044 C684.83,1396.1044 684.83,293.2344 684.83,293.2344 C684.83,293.2344 658.05,293.2344 619.25,293.2344" fill="none" id="Draft-to-Control1" style="stroke:#181818;stroke-width:1;"/><polygon fill="#181818" points="614.25,293.2344,623.25,297.2344,619.25,293.2344,623.25,289.2344,614.25,293.2344" style="stroke:#181818;stroke-width:1;stroke-linejoin:miter;stroke-miterlimit:10;"/></g><!--link Control1 to Validated--><g class="link" data-entity-1="ent0002" data-entity-2="ent0003" data-link-type="dependency" data-source-line="38" id="lnk12"><path d="M400.5,321.3744 C400.5,355.2244 400.5,385.7444 400.5,411.2244" fill="none" id="Control1-to-Validated" style="stroke:#181818;stroke-width:1;"/><polygon fill="#181818" points="400.5,416.2244,404.5,407.2244,400.5,411.2244,396.5,407.2244,400.5,416.2244" style="stroke:#181818;stroke-width:1;stroke-linejoin:miter;stroke-miterlimit:10;"/></g><!--link Validated to Control2--><g class="link" data-entity-1="ent0003" data-entity-2="ent0004" data-link-type="dependency" data-source-line="40" id="lnk13"><path d="M283.75,488.3044 C283.75,513.8144 283.75,544.3744 283.75,578.2244" fill="none" id="Validated-to-Control2" style="stroke:#181818;stroke-width:1;"/><polygon fill="#181818" points="283.75,583.2244,287.75,574.2244,283.75,578.2244,279.75,574.2244,283.75,583.2244" style="stroke:#181818;stroke-width:1;stroke-linejoin:miter;stroke-miterlimit:10;"/></g><!--link Control2 to Submitted--><g class="link" data-entity-1="ent0004" data-entity-2="ent0005" data-link-type="dependency" data-source-line="41" id="lnk14"><path d="M169.25,786.3744 C169.25,820.2244 169.25,850.7444 169.25,876.2244" fill="none" id="Control2-to-Submitted" style="stroke:#181818;stroke-width:1;"/><polygon fill="#181818" points="169.25,881.2244,173.25,872.2244,169.25,876.2244,165.25,872.2244,169.25,881.2244" style="stroke:#181818;stroke-width:1;stroke-linejoin:miter;stroke-miterlimit:10;"/></g><!--link Submitted to Control3--><g class="link" data-entity-1="ent0005" data-entity-2="ent0006" data-link-type="dependency" data-source-line="43" id="lnk15"><path d="M158.25,953.3044 C158.25,978.8144 158.25,1009.3744 158.25,1043.2244" fill="none" id="Submitted-to-Control3" style="stroke:#181818;stroke-width:1;"/><polygon fill="#181818" points="158.25,1048.2244,162.25,1039.2244,158.25,1043.2244,154.25,1039.2244,158.25,1048.2244" style="stroke:#181818;stroke-width:1;stroke-linejoin:miter;stroke-miterlimit:10;"/></g><!--link Control3 to Decision--><g class="link" data-entity-1="ent0006" data-entity-2="ent0007" data-link-type="dependency" data-source-line="44" id="lnk16"><path d="M145.5,1251.3744 C145.5,1283.9144 145.5,1313.6144 145.5,1341.1644" fill="none" id="Control3-to-Decision" style="stroke:#181818;stroke-width:1;"/><polygon fill="#181818" points="145.5,1346.1644,149.5,1337.1644,145.5,1341.1644,141.5,1337.1644,145.5,1346.1644" style="stroke:#181818;stroke-width:1;stroke-linejoin:miter;stroke-miterlimit:10;"/></g><!--link Decision to Control4--><g class="link" data-entity-1="ent0007" data-entity-2="ent0008" data-link-type="dependency" data-source-line="46" id="lnk17"><path d="M145.5,1451.2344 C145.5,1478.7744 145.5,1508.4744 145.5,1541.0244" fill="none" id="Decision-to-Control4" style="stroke:#181818;stroke-width:1;"/><polygon fill="#181818" points="145.5,1546.0244,149.5,1537.0244,145.5,1541.0244,141.5,1537.0244,145.5,1546.0244" style="stroke:#181818;stroke-width:1;stroke-linejoin:miter;stroke-miterlimit:10;"/><text fill="#000000" font-family="sans-serif" font-size="13" lengthAdjust="spacing" textLength="54.3867" x="72.5" y="1476.6913">Approve</text></g><!--link Control4 to Approved--><g class="link" data-entity-1="ent0008" data-entity-2="ent0009" data-link-type="dependency" data-source-line="47" id="lnk18"><path d="M145.5,1749.3744 C145.5,1783.2244 145.5,1813.7444 145.5,1839.2244" fill="none" id="Control4-to-Approved" style="stroke:#181818;stroke-width:1;"/><polygon fill="#181818" points="145.5,1844.2244,149.5,1835.2244,145.5,1839.2244,141.5,1835.2244,145.5,1844.2244" style="stroke:#181818;stroke-width:1;stroke-linejoin:miter;stroke-miterlimit:10;"/></g><!--link Approved to Ready--><g class="link" data-entity-1="ent0009" data-entity-2="ent0010" data-link-type="dependency" data-source-line="49" id="lnk19"><path d="M145.5,1916.5944 C145.5,1944.0044 145.5,1976.7444 145.5,2006.0044" fill="none" id="Approved-to-Ready" style="stroke:#181818;stroke-width:1;"/><polygon fill="#181818" points="145.5,2011.0044,149.5,2002.0044,145.5,2006.0044,141.5,2002.0044,145.5,2011.0044" style="stroke:#181818;stroke-width:1;stroke-linejoin:miter;stroke-miterlimit:10;"/></g><!--link Decision to Draft--><g class="link" data-entity-1="ent0007" data-entity-2="ent0001" data-link-type="dependency" data-source-line="51" id="lnk20"><path d="M240.21,1399.2344 C391.33,1399.2344 670.17,1399.2344 670.17,1399.2344 C670.17,1399.2344 670.17,1537.6844 670.17,1606.6044" fill="none" id="Decision-to-Draft" style="stroke:#181818;stroke-width:1;"/><polygon fill="#181818" points="670.17,1611.6044,674.17,1602.6044,670.17,1606.6044,666.17,1602.6044,670.17,1611.6044" style="stroke:#181818;stroke-width:1;stroke-linejoin:miter;stroke-miterlimit:10;"/><text fill="#000000" font-family="sans-serif" font-size="13" lengthAdjust="spacing" textLength="121.3164" x="421.37" y="1377.3013">Return for revision</text></g><g class="legend" data-source-line="76"><rect fill="#DDDDDD" height="409.2656" rx="7.5" ry="7.5" style="stroke:#000000;stroke-width:1;" width="612.0264" x="159.864" y="2119.8281"/><text fill="#000000" font-family="sans-serif" font-size="14" font-weight="700" lengthAdjust="spacing" textLength="103.8447" x="205.738" y="2175.8232">Control point</text><text fill="#000000" font-family="sans-serif" font-size="14" font-weight="700" lengthAdjust="spacing" textLength="131.2637" x="355.3308" y="2175.8232">Primary purpose</text><text fill="#000000" font-family="sans-serif" font-size="14" lengthAdjust="spacing" textLength="64.2715" x="205.3142" y="2228.1201">Control 1</text><text fill="#000000" font-family="sans-serif" font-size="14" lengthAdjust="spacing" textLength="339.0488" x="354.907" y="2228.1201">Ensure transaction data is complete and eligible</text><text fill="#000000" font-family="sans-serif" font-size="14" lengthAdjust="spacing" textLength="64.2715" x="205.3142" y="2280.417">Control 2</text><text fill="#000000" font-family="sans-serif" font-size="14" lengthAdjust="spacing" textLength="208.7148" x="354.907" y="2280.417">Protect the submitted version</text><text fill="#000000" font-family="sans-serif" font-size="14" lengthAdjust="spacing" textLength="64.2715" x="205.3142" y="2332.7139">Control 3</text><text fill="#000000" font-family="sans-serif" font-size="14" lengthAdjust="spacing" textLength="371.5332" x="354.907" y="2332.7139">Enforce approval authority and segregation of duties</text><text fill="#000000" font-family="sans-serif" font-size="14" lengthAdjust="spacing" textLength="64.2715" x="205.3142" y="2385.0107">Control 4</text><text fill="#000000" font-family="sans-serif" font-size="14" lengthAdjust="spacing" textLength="289.8369" x="354.907" y="2385.0107">Preserve the decision and audit evidence</text><line style="stroke:#000000;stroke-width:1;" x1="182.864" x2="748.8904" y1="2144.8281" y2="2144.8281"/><line style="stroke:#000000;stroke-width:1;" x1="182.864" x2="748.8904" y1="2197.125" y2="2197.125"/><line style="stroke:#000000;stroke-width:1;" x1="182.864" x2="748.8904" y1="2249.4219" y2="2249.4219"/><line style="stroke:#000000;stroke-width:1;" x1="182.864" x2="748.8904" y1="2301.7188" y2="2301.7188"/><line style="stroke:#000000;stroke-width:1;" x1="182.864" x2="748.8904" y1="2354.0156" y2="2354.0156"/><line style="stroke:#000000;stroke-width:1;" x1="182.864" x2="748.8904" y1="2406.3125" y2="2406.3125"/><line style="stroke:#000000;stroke-width:1;" x1="182.864" x2="182.864" y1="2144.8281" y2="2406.3125"/><line style="stroke:#000000;stroke-width:1;" x1="332.4568" x2="332.4568" y1="2144.8281" y2="2406.3125"/><line style="stroke:#000000;stroke-width:1;" x1="748.8904" x2="748.8904" y1="2144.8281" y2="2406.3125"/><text fill="#000000" font-family="sans-serif" font-size="14" lengthAdjust="spacing" textLength="4.4502" x="463.6521" y="2421.3076">&#160;</text><text fill="#000000" font-family="sans-serif" font-size="14" lengthAdjust="spacing" textLength="201.9199" x="364.9172" y="2437.6045">Each control should trace to:</text><text fill="#000000" font-family="sans-serif" font-size="14" lengthAdjust="spacing" textLength="113.3193" x="409.2175" y="2453.9014">&#8226; Business rules</text><text fill="#000000" font-family="sans-serif" font-size="14" lengthAdjust="spacing" textLength="148.5518" x="391.6013" y="2470.1982">&#8226; Acceptance criteria</text><text fill="#000000" font-family="sans-serif" font-size="14" lengthAdjust="spacing" textLength="86.584" x="422.5852" y="2486.4951">&#8226; Test cases</text><text fill="#000000" font-family="sans-serif" font-size="14" lengthAdjust="spacing" textLength="117.3457" x="407.2043" y="2502.792">&#8226; Audit evidence</text></g><?plantuml-src ZLRRRXit47tdLmpoR1VH9KLg82tMbce8i2LLabqKy0kr76a9xv9RaYj5hGha8_85_RHyIOVSUwAYVJ6yCyEPENFEa7BIfGZJxw_V3k3Bfy-mD3hN5e4h0L6U6tr0cE3MmSPmPNdif5OlwhQmKg6rSAULCpg5HvupvdGEJiDMEwSp4D9W26VClagLSyCpi0aN-YZL7dOyjTZnf9JGdN84RLoYEmw1ErwaReCVNPJAlSfGEOZf3vfEbD82BURm_bt7I2s_UkCFNMFEXV0D3Dvt6_EzShMdMVp907ucM6lv1y9WJ5-FKicio7wLmYKmVFUM_SLO6_zcOlYkDvytm2q4Qo_kRZ7Vh1OFC7YX2KwYJGI_F4KFiyrl4CqdC7sOtSzkP_xR-rVuUq435B2Jc0hxeeWOKSGEJ94YVKwuGpZmL0fUKhB27HfKCG9P-8lgz4EppQIpeQsAi46li-So3rNx6aNZkOXaw3jTFzq-pjRhsM8Ei_bcUh-g48IZO1rtXQNnbd0elDXICxxM0OtrtSK6VGLg6Krc8TNngyUj3PqwI3osPxmbraQ4O9aX9S_onjR5D-prszRy6b_ZkOXlv754o-LgyHmzmFtYURgQH_ExQJ0N95D36X70opqnP0p_yHHuwNMdQlQ40VS6zu4iq3iGXPEUnpkTvIaIboLMKcVyolVe-NI5KMJcLgjcVbsCerxFJUa9nj86ITJz-9sY33xVJwKsgv2BeCT1VjExnMeIX1azJMQRFhNrUP-KqzuI7SyLcOcqJfjJnxCk5L3aecHvoOsJiSovSfRMrabIk6XQ5U222kZ3KMzznECBY2-GMZjwqIlaukHLvQc8Yy3Dqg3V_kPWY66iNEZhwn_RRQd_2TREKhIRqmaVrk73OEreh1LY9tnKXu-2jIMd6NCdU0mtDJxMcBo_1TtCnPjhIDrK9RuRg2HMRrfPb1WXCSfzuhnCcm7Gg0xe6PCghYHxnOXWkf7bDiKhBp7fxsJ5q_J4V9Iof0L_MRkM7_iTGtfPV95_AKN32_U11GvnQKe9bLKyjubseLjUQVq_autQlWl5curblDbJEazLTgcCdMLRT4T4vSL7Zs3b_j_5nhwOHNEWtccS8bp6UiUE2NTm97bLzuIuOjiJ71ETNOK2nmHLDtcAU_zHFgFi_A5vP7DD4mOoB8tCE2rPNfZmM9_PkGaQm1ccoXO6ktCFZm982pLveNBDNY_1a18io-q3bo3ORoxiRlGeb2DI22l_zlRpLUobcw-NP1nAbhCBDKKjrq108QHh9tfcRChZf1O7_QJGHIeyM78wVSE-VFeRcXyeuRaCfYYECQVRWA9YwWsDvC6-eMS4Ocxhi5urJql9npy0?></g></svg>